<?xml version="1.0" encoding="iso-8859-1"?>
<!-- Generator: Adobe Illustrator 19.1.0, SVG Export Plug-In . SVG Version: 6.00 Build 0)  -->
<svg version="1.1" id="Capa_1" xmlns="http://www.w3.org/2000/svg" xmlns:xlink="http://www.w3.org/1999/xlink" x="0px" y="0px"
	 viewBox="0 0 63.095 63.095" style="enable-background:new 0 0 63.095 63.095;" xml:space="preserve">
<g>
	<g id="group-7svg">
		<path id="path-1_17_" d="M45.473,22.863H17.255c-2.09,0-3.906-1.124-4.625-2.862c-0.685-1.653-0.251-3.538,1.132-4.92
			L27.897,1.599C28.903,0.592,30.29,0,31.678,0c1.212,0,2.341,0.462,3.179,1.299l14.097,13.769c1.395,1.395,1.829,3.28,1.144,4.933
			C49.379,21.739,47.563,22.863,45.473,22.863z M31.678,2.999c-0.589,0-1.218,0.278-1.684,0.745L15.858,17.226
			c-0.506,0.507-0.677,1.093-0.456,1.627c0.202,0.488,0.796,1.011,1.854,1.011h28.218c1.058,0,1.652-0.523,1.854-1.011
			c0.222-0.534,0.05-1.12-0.482-1.652L32.75,3.433C32.458,3.141,32.1,2.999,31.678,2.999z"/>
		<path id="path-2_16_" d="M31.435,63.095L31.435,63.095c-1.341,0-2.607-0.528-3.564-1.484L13.759,47.43
			c-1.428-1.427-1.843-3.582-1.053-5.487c0.788-1.902,2.531-3.085,4.549-3.085h28.218c2.018,0,3.761,1.183,4.549,3.085
			c0.79,1.905,0.375,4.06-1.055,5.49L34.863,61.678C33.947,62.593,32.731,63.095,31.435,63.095z M17.255,41.857
			c-1.175,0-1.658,0.945-1.778,1.233c-0.257,0.621-0.286,1.531,0.406,2.223l14.112,14.18c0.738,0.737,2.029,0.783,2.741,0.069
			L46.84,45.317c0.697-0.696,0.669-1.606,0.411-2.227c-0.119-0.288-0.603-1.233-1.778-1.233H17.255z"/>
		<path id="path-3_14_" d="M51.048,29.861h-39c-0.828,0-1.5-0.672-1.5-1.5c0-0.828,0.672-1.499,1.5-1.499h39
			c0.828,0,1.5,0.671,1.5,1.499C52.548,29.189,51.875,29.861,51.048,29.861z"/>
		<path id="path-4_9_" d="M51.048,34.859h-39c-0.828,0-1.5-0.671-1.5-1.499s0.672-1.5,1.5-1.5h39c0.828,0,1.5,0.672,1.5,1.5
			S51.875,34.859,51.048,34.859z"/>
	</g>
</g>
<g>
</g>
<g>
</g>
<g>
</g>
<g>
</g>
<g>
</g>
<g>
</g>
<g>
</g>
<g>
</g>
<g>
</g>
<g>
</g>
<g>
</g>
<g>
</g>
<g>
</g>
<g>
</g>
<g>
</g>
</svg>
